<svg version="1.1" xmlns="http://www.w3.org/2000/svg" xmlns:xlink="http://www.w3.org/1999/xlink" width="27.49428" height="25.53207" viewBox="0,0,27.49428,25.53207"><g transform="translate(-225.69873,-164.34772)"><g data-paper-data="{&quot;isPaintingLayer&quot;:true}" fill-rule="nonzero" stroke-linecap="butt" stroke-linejoin="miter" stroke-miterlimit="10" stroke-dasharray="" stroke-dashoffset="0" style="mix-blend-mode: normal"><path d="M241.30393,182.70082v-2.47925h2.61448v2.47925z" fill="#9966ff" stroke="#000000" stroke-width="0.5"/><path d="M237.60706,187.0419l-2.23118,-2.50377l1.51164,-0.66874l2.23119,2.50376z" fill="#9966ff" stroke="#000000" stroke-width="0.5"/><path d="M247.37368,189.61603l-10.04126,-0.00432l0.00281,-6.55568l10.04126,0.00432z" fill="#ffb766" stroke="#000000" stroke-width="0.5"/><path d="M247.37368,189.61603l-10.04126,-0.00432l0.00059,-1.36657l2.43012,-5.18806l7.61338,0.00329z" fill="#66f8ff" stroke="#000000" stroke-width="0.5"/><path d="M247.43201,189.44104l-4.27766,-0.00185l-3.33289,-6.55712l4.46266,0.00192l3.15074,0.00136z" fill="#4a6ece" stroke="#000000" stroke-width="0.5"/><path d="M233.92808,188.152l-2.09453,-6.83391l7.16156,-4.97639l2.09453,6.83392z" fill="#89ff66" stroke="#000000" stroke-width="0.5"/><path d="M234.49763,182.2697c-0.05248,-0.17124 0.03016,-0.39704 0.18459,-0.50435c0.15444,-0.10731 0.32217,-0.05549 0.37465,0.11574c0.05248,0.17124 -0.03016,0.39704 -0.1846,0.50436c-0.15444,0.10731 -0.32217,0.05549 -0.37465,-0.11574z" fill="#000000" stroke="#000000" stroke-width="0"/><path d="M237.28086,180.49352c-0.05248,-0.17124 0.03017,-0.39705 0.1846,-0.50436c0.15444,-0.10731 0.32217,-0.05549 0.37465,0.11574c0.05248,0.17124 -0.03017,0.39705 -0.1846,0.50436c-0.15444,0.10731 -0.32217,0.05549 -0.37465,-0.11574z" fill="#000000" stroke="#000000" stroke-width="0"/><path d="M238.9027,181.65857c0.29769,0.01229 0.19512,0.36131 0.19512,0.36131l-0.13057,0.39169c-0.25609,0.43769 -0.62069,1.1729 -0.9876,1.50585c-0.45027,0.40861 -1.87073,0.99691 -2.33147,0.9373c-0.36397,-0.0471 -0.65812,-0.41925 -0.97163,-0.57051c0,0 -0.24999,-0.12204 -0.05854,-0.44925c0.19144,-0.32722 0.44144,-0.20518 0.44144,-0.20518c0.24694,0.12179 0.56239,0.49031 0.84651,0.53195c0.24644,0.03611 0.6114,-0.21278 0.85962,-0.32816c0.20051,-0.0932 0.73115,-0.23317 0.89867,-0.39207c0.28568,-0.27096 0.59148,-0.91247 0.80303,-1.274l0.03515,-0.17223c0,0 0.10257,-0.34901 0.40027,-0.33673z" fill="#000000" stroke="#000000" stroke-width="0"/><path d="M241.72748,176.53278c0.28418,0.89508 -2.4637,2.07926 -5.74724,3.64937c-3.28353,1.5701 -5.84453,2.79574 -6.12871,1.90066c-0.28418,-0.89508 1.91216,-3.36042 5.19569,-4.93052c3.28354,-1.57011 6.39607,-1.51458 6.68026,-0.6195z" fill="#ac9060" stroke="#000000" stroke-width="0.5"/><path d="M239.04634,176.62249c0.18628,0.58672 -1.76008,2.06524 -3.33353,2.81761c-1.57345,0.75238 -4.03336,1.4342 -4.21661,0.85702c-0.18628,-0.58672 0.17726,-5.58901 2.32954,-6.61818c2.15228,-1.02917 5.03431,2.35682 5.22059,2.94353z" fill="#ac9060" stroke="#000000" stroke-width="0.5"/><path d="M225.69873,189.8798v-25.53207h27.49428v25.53207z" fill="none" stroke="#ffffff" stroke-width="0"/><path d="M234.36276,189.05869v-2.47925h2.61448v2.47925z" fill="#9966ff" stroke="#000000" stroke-width="0.5"/></g></g></svg>