<svg version="1.1" xmlns="http://www.w3.org/2000/svg" xmlns:xlink="http://www.w3.org/1999/xlink" width="1172.44485" height="475.97598" viewBox="0,0,1172.44485,475.97598"><defs><linearGradient x1="-224.70504" y1="181.50156" x2="783.9286" y2="181.50156" gradientUnits="userSpaceOnUse" id="color-1"><stop offset="0" stop-color="#2417ff"/><stop offset="1" stop-color="#8b0089"/></linearGradient></defs><g transform="translate(312.61666,57.98799)"><g data-paper-data="{&quot;isPaintingLayer&quot;:true}" fill-rule="nonzero" stroke-linecap="butt" stroke-linejoin="miter" stroke-miterlimit="10" stroke-dasharray="" stroke-dashoffset="0" style="mix-blend-mode: normal"><path d="M-248.72907,361.50156l250.42183,-360h758.21181l-250.42183,360z" data-paper-data="{&quot;index&quot;:null}" fill-opacity="0.18431" fill="#000000" stroke="#000000" stroke-width="4"/><path d="M-284.7651,361.50156l250.42183,-360h758.21181l-250.42183,360z" data-paper-data="{&quot;index&quot;:null}" fill-opacity="0.18431" fill="#000000" stroke="#000000" stroke-width="4"/><path d="M-308.78913,361.50156l250.42183,-360h758.21181l-250.42183,360z" data-paper-data="{&quot;index&quot;:null}" fill-opacity="0.18431" fill="#000000" stroke="#000000" stroke-width="4"/><path d="M-152.63297,361.50156l250.42183,-360h758.21181l-250.42183,360z" data-paper-data="{&quot;index&quot;:null}" fill-opacity="0.18431" fill="#000000" stroke="#000000" stroke-width="4"/><path d="M-188.66901,361.50156l250.42183,-360h758.21181l-250.42183,360z" data-paper-data="{&quot;index&quot;:null}" fill-opacity="0.18431" fill="#000000" stroke="#000000" stroke-width="4"/><path d="M-212.69303,361.50156l250.42183,-360h758.21181l-250.42183,360z" data-paper-data="{&quot;index&quot;:null}" fill-opacity="0.18431" fill="#000000" stroke="#000000" stroke-width="4"/><path d="M-224.70504,361.50156l250.42183,-360h758.21181l-250.42183,360z" data-paper-data="{&quot;index&quot;:null}" fill="url(#color-1)" stroke="#000000" stroke-width="4"/><path d="M-305.7958,417.988v-475.97598h1091.59159v475.97598z" fill="none" stroke="none" stroke-width="0"/></g></g></svg>